<svg width="75" height="75" viewBox="0 0 75 75" fill="none" xmlns="http://www.w3.org/2000/svg">
<rect x="0.5" y="0.5" width="74" height="74" rx="14.5" stroke="#E2E8F0"/>
<path d="M43.1389 30.2846C40.6976 30.2846 39.6659 31.4495 37.9658 31.4495C36.2226 31.4495 34.893 30.2931 32.7775 30.2931C30.7068 30.2931 28.4987 31.5573 27.0964 33.711C25.1274 36.748 25.4616 42.4678 28.6506 47.3407C29.7913 49.085 31.3147 51.0413 33.3127 51.0625H33.3491C35.0856 51.0625 35.6014 49.9254 37.9912 49.9121H38.0275C40.3816 49.9121 40.8539 51.0558 42.5831 51.0558H42.6194C44.6174 51.0346 46.2225 48.867 47.3632 47.1294C48.1843 45.8797 48.4894 45.2524 49.1191 43.8386C44.506 42.0876 43.765 35.5479 48.3272 33.0407C46.9346 31.297 44.9777 30.287 43.1328 30.287L43.1389 30.2846Z" fill="#2D3748"/>
<path d="M42.6008 23.939C41.1477 24.0377 39.4524 24.9629 38.4594 26.1708C37.5585 27.2655 36.8174 28.8893 37.108 30.4642H37.2243C38.7719 30.4642 40.3558 29.5323 41.2809 28.3384C42.1722 27.2019 42.8479 25.5913 42.6008 23.939Z" fill="#2D3748"/>
</svg>
