<svg width="20" height="21" viewBox="0 0 20 21" fill="none" xmlns="http://www.w3.org/2000/svg">
<g clip-path="url(#clip0_10_856)">
<path d="M19.7594 9.91977L10.8966 0.990642L10.0378 0.125427L3.36613 6.84705L0.315322 9.91977C0.162936 10.0741 0.0773926 10.2829 0.0773926 10.5006C0.0773926 10.7183 0.162936 10.9271 0.315322 11.0814L6.41049 17.2222L10.0378 20.8757L16.7086 14.1541L16.8125 14.0504L19.7594 11.086C19.8357 11.0097 19.8963 10.9188 19.9377 10.8187C19.9791 10.7187 20.0004 10.6113 20.0004 10.5029C20.0004 10.3945 19.9791 10.2872 19.9377 10.1871C19.8963 10.087 19.8357 9.99614 19.7594 9.91977ZM10.0378 13.5687L6.99252 10.5006L10.0378 7.43251L13.0822 10.5006L10.0378 13.5687Z" fill="#2684FF"/>
<path d="M10.0374 7.4327C9.07966 6.46801 8.53976 5.16068 8.53563 3.79625C8.53149 2.43183 9.06346 1.1212 10.0153 0.150635L3.35193 6.86114L6.97832 10.5147L10.0374 7.4327Z" fill="url(#paint0_linear_10_856)"/>
<path d="M13.0901 10.4925L10.0375 13.5689C10.9988 14.5377 11.5389 15.8516 11.5389 17.2215C11.5389 18.5914 10.9988 19.9053 10.0375 20.8741L16.7193 14.146L13.0901 10.4925Z" fill="url(#paint1_linear_10_856)"/>
</g>
<defs>
<linearGradient id="paint0_linear_10_856" x1="9.49216" y1="4.32849" x2="5.2079" y2="8.58" gradientUnits="userSpaceOnUse">
<stop offset="0.18" stop-color="#0052CC"/>
<stop offset="1" stop-color="#2684FF"/>
</linearGradient>
<linearGradient id="paint1_linear_10_856" x1="776.104" y1="900.926" x2="1212.24" y2="1181.57" gradientUnits="userSpaceOnUse">
<stop offset="0.18" stop-color="#0052CC"/>
<stop offset="1" stop-color="#2684FF"/>
</linearGradient>
<clipPath id="clip0_10_856">
<rect width="20" height="21" fill="white"/>
</clipPath>
</defs>
</svg>
