<svg width="75" height="75" viewBox="0 0 75 75" fill="none" xmlns="http://www.w3.org/2000/svg">
<rect x="0.5" y="0.5" width="74" height="74" rx="14.5" stroke="#E2E8F0"/>
<g clip-path="url(#clip0_92_240)">
<path d="M50.4173 37.5C50.4173 30.37 44.6307 24.5833 37.5007 24.5833C30.3707 24.5833 24.584 30.37 24.584 37.5C24.584 43.7516 29.0273 48.9571 34.9173 50.1583V41.375H32.334V37.5H34.9173V34.2708C34.9173 31.7779 36.9452 29.75 39.4382 29.75H42.6673V33.625H40.084C39.3736 33.625 38.7923 34.2062 38.7923 34.9166V37.5H42.6673V41.375H38.7923V50.3521C45.3152 49.7062 50.4173 44.2037 50.4173 37.5Z" fill="#2D3748"/>
</g>
<defs>
<clipPath id="clip0_92_240">
<rect width="31" height="31" fill="white" transform="translate(22 22)"/>
</clipPath>
</defs>
</svg>
