<svg width="75" height="75" viewBox="0 0 75 75" fill="none" xmlns="http://www.w3.org/2000/svg">
<rect x="0.5" y="0.5" width="74" height="74" rx="14.5" stroke="#E2E8F0"/>
<path d="M47.6794 35.8817L47.5734 35.4322H37.8028V39.5675H43.6406C43.0345 42.4457 40.222 43.9607 37.9247 43.9607C36.2531 43.9607 34.4911 43.2575 33.3248 42.1274C32.7095 41.5216 32.2197 40.8004 31.8835 40.005C31.5473 39.2097 31.3713 38.3558 31.3655 37.4924C31.3655 35.7505 32.1483 34.0082 33.2873 32.8621C34.4264 31.716 36.1467 31.0747 37.8572 31.0747C39.8161 31.0747 41.22 32.1149 41.745 32.5893L44.6836 29.6661C43.8216 28.9086 41.4534 26.9999 37.7625 26.9999C34.9148 26.9999 32.1844 28.0907 30.1884 30.08C28.2187 32.0389 27.1992 34.8716 27.1992 37.4999C27.1992 40.1282 28.1639 42.8192 30.0727 44.7936C32.1122 46.8992 35.0006 47.9999 37.9748 47.9999C40.6809 47.9999 43.2459 46.9396 45.0741 45.0158C46.8712 43.1221 47.8008 40.5017 47.8008 37.7549C47.8008 36.5985 47.6845 35.9117 47.6794 35.8817Z" fill="#2D3748"/>
</svg>
