<svg width="620" height="222" viewBox="0 0 620 222" fill="none" xmlns="http://www.w3.org/2000/svg">
<rect width="620" height="222" rx="12" fill="url(#paint0_linear_10_107)"/>
<rect x="98" y="87.5" width="7" height="99.5" rx="3.5" fill="white"/>
<rect x="158" y="116" width="7" height="71" rx="3.5" fill="white"/>
<rect x="218" y="149" width="7" height="38" rx="3.5" fill="white"/>
<rect x="278" y="98" width="7" height="89" rx="3.5" fill="white"/>
<rect x="338" y="33.5" width="7" height="153.5" rx="3.5" fill="white"/>
<rect x="398" y="60.5" width="7" height="126.5" rx="3.5" fill="white"/>
<rect x="458" y="42.5" width="7" height="144.5" rx="3.5" fill="white"/>
<rect x="518" y="98" width="7" height="89" rx="3.5" fill="white"/>
<rect x="578" y="137" width="7" height="50" rx="3.5" fill="white"/>
<path d="M31.7334 183.528C31.7334 184.342 31.8001 184.965 31.9336 185.398C32.0671 185.828 32.3405 186.043 32.7539 186.043C33.1673 186.043 33.4375 185.828 33.5645 185.398C33.6947 184.965 33.7598 184.342 33.7598 183.528C33.7598 182.675 33.6947 182.044 33.5645 181.634C33.4375 181.224 33.1673 181.019 32.7539 181.019C32.3405 181.019 32.0671 181.224 31.9336 181.634C31.8001 182.044 31.7334 182.675 31.7334 183.528ZM32.7539 179.871C33.6556 179.871 34.2871 180.188 34.6484 180.823C35.013 181.458 35.1953 182.36 35.1953 183.528C35.1953 184.697 35.013 185.597 34.6484 186.229C34.2871 186.86 33.6556 187.176 32.7539 187.176C31.8522 187.176 31.2191 186.86 30.8545 186.229C30.4932 185.597 30.3125 184.697 30.3125 183.528C30.3125 182.36 30.4932 181.458 30.8545 180.823C31.2191 180.188 31.8522 179.871 32.7539 179.871Z" fill="white"/>
<path d="M30.6934 153.617V152.67C31.1328 152.65 31.4404 152.621 31.6162 152.582C31.8962 152.52 32.124 152.396 32.2998 152.211C32.4202 152.084 32.5114 151.915 32.5732 151.703C32.609 151.576 32.627 151.482 32.627 151.42H33.7842V158.5H32.3584V153.617H30.6934ZM37.2998 155.028C37.2998 155.842 37.3665 156.465 37.5 156.898C37.6335 157.328 37.9069 157.543 38.3203 157.543C38.7337 157.543 39.0039 157.328 39.1309 156.898C39.2611 156.465 39.3262 155.842 39.3262 155.028C39.3262 154.175 39.2611 153.544 39.1309 153.134C39.0039 152.724 38.7337 152.519 38.3203 152.519C37.9069 152.519 37.6335 152.724 37.5 153.134C37.3665 153.544 37.2998 154.175 37.2998 155.028ZM38.3203 151.371C39.222 151.371 39.8535 151.688 40.2148 152.323C40.5794 152.958 40.7617 153.86 40.7617 155.028C40.7617 156.197 40.5794 157.097 40.2148 157.729C39.8535 158.36 39.222 158.676 38.3203 158.676C37.4186 158.676 36.7855 158.36 36.4209 157.729C36.0596 157.097 35.8789 156.197 35.8789 155.028C35.8789 153.86 36.0596 152.958 36.4209 152.323C36.7855 151.688 37.4186 151.371 38.3203 151.371ZM42.8662 155.028C42.8662 155.842 42.9329 156.465 43.0664 156.898C43.1999 157.328 43.4733 157.543 43.8867 157.543C44.3001 157.543 44.5703 157.328 44.6973 156.898C44.8275 156.465 44.8926 155.842 44.8926 155.028C44.8926 154.175 44.8275 153.544 44.6973 153.134C44.5703 152.724 44.3001 152.519 43.8867 152.519C43.4733 152.519 43.1999 152.724 43.0664 153.134C42.9329 153.544 42.8662 154.175 42.8662 155.028ZM43.8867 151.371C44.7884 151.371 45.4199 151.688 45.7812 152.323C46.1458 152.958 46.3281 153.86 46.3281 155.028C46.3281 156.197 46.1458 157.097 45.7812 157.729C45.4199 158.36 44.7884 158.676 43.8867 158.676C42.985 158.676 42.3519 158.36 41.9873 157.729C41.626 157.097 41.4453 156.197 41.4453 155.028C41.4453 153.86 41.626 152.958 41.9873 152.323C42.3519 151.688 42.985 151.371 43.8867 151.371Z" fill="white"/>
<path d="M30.3125 129.5C30.3255 128.992 30.4346 128.528 30.6396 128.108C30.8382 127.636 31.307 127.137 32.0459 126.609C32.6872 126.15 33.1022 125.822 33.291 125.623C33.5807 125.314 33.7256 124.975 33.7256 124.607C33.7256 124.308 33.6426 124.059 33.4766 123.86C33.3105 123.662 33.0729 123.562 32.7637 123.562C32.3405 123.562 32.0524 123.72 31.8994 124.036C31.8115 124.218 31.7594 124.508 31.7432 124.905H30.3906C30.4134 124.303 30.5225 123.816 30.7178 123.445C31.0889 122.739 31.748 122.386 32.6953 122.386C33.444 122.386 34.0397 122.594 34.4824 123.011C34.9251 123.424 35.1465 123.973 35.1465 124.656C35.1465 125.18 34.9902 125.646 34.6777 126.053C34.4727 126.323 34.1357 126.624 33.667 126.956L33.1104 127.352C32.762 127.599 32.5228 127.778 32.3926 127.889C32.2656 127.999 32.1582 128.128 32.0703 128.274H35.1611V129.5H30.3125ZM37.2998 126.028C37.2998 126.842 37.3665 127.465 37.5 127.898C37.6335 128.328 37.9069 128.543 38.3203 128.543C38.7337 128.543 39.0039 128.328 39.1309 127.898C39.2611 127.465 39.3262 126.842 39.3262 126.028C39.3262 125.175 39.2611 124.544 39.1309 124.134C39.0039 123.724 38.7337 123.519 38.3203 123.519C37.9069 123.519 37.6335 123.724 37.5 124.134C37.3665 124.544 37.2998 125.175 37.2998 126.028ZM38.3203 122.371C39.222 122.371 39.8535 122.688 40.2148 123.323C40.5794 123.958 40.7617 124.86 40.7617 126.028C40.7617 127.197 40.5794 128.097 40.2148 128.729C39.8535 129.36 39.222 129.676 38.3203 129.676C37.4186 129.676 36.7855 129.36 36.4209 128.729C36.0596 128.097 35.8789 127.197 35.8789 126.028C35.8789 124.86 36.0596 123.958 36.4209 123.323C36.7855 122.688 37.4186 122.371 38.3203 122.371ZM42.8662 126.028C42.8662 126.842 42.9329 127.465 43.0664 127.898C43.1999 128.328 43.4733 128.543 43.8867 128.543C44.3001 128.543 44.5703 128.328 44.6973 127.898C44.8275 127.465 44.8926 126.842 44.8926 126.028C44.8926 125.175 44.8275 124.544 44.6973 124.134C44.5703 123.724 44.3001 123.519 43.8867 123.519C43.4733 123.519 43.1999 123.724 43.0664 124.134C42.9329 124.544 42.8662 125.175 42.8662 126.028ZM43.8867 122.371C44.7884 122.371 45.4199 122.688 45.7812 123.323C46.1458 123.958 46.3281 124.86 46.3281 126.028C46.3281 127.197 46.1458 128.097 45.7812 128.729C45.4199 129.36 44.7884 129.676 43.8867 129.676C42.985 129.676 42.3519 129.36 41.9873 128.729C41.626 128.097 41.4453 127.197 41.4453 126.028C41.4453 124.86 41.626 123.958 41.9873 123.323C42.3519 122.688 42.985 122.371 43.8867 122.371Z" fill="white"/>
<path d="M31.6309 98.3271C31.6309 98.6104 31.6764 98.8447 31.7676 99.0303C31.9368 99.3721 32.2445 99.543 32.6904 99.543C32.9639 99.543 33.2015 99.4502 33.4033 99.2646C33.6084 99.0758 33.7109 98.8057 33.7109 98.4541C33.7109 97.9886 33.5221 97.6777 33.1445 97.5215C32.9297 97.4336 32.5911 97.3896 32.1289 97.3896V96.3936C32.5814 96.387 32.8971 96.3431 33.0762 96.2617C33.3854 96.125 33.54 95.8483 33.54 95.4316C33.54 95.1615 33.4603 94.9417 33.3008 94.7725C33.1445 94.6032 32.9232 94.5186 32.6367 94.5186C32.3079 94.5186 32.0654 94.6227 31.9092 94.8311C31.7562 95.0394 31.6829 95.3177 31.6895 95.666H30.3906C30.4036 95.3145 30.4639 94.9808 30.5713 94.665C30.6852 94.3883 30.8643 94.1328 31.1084 93.8984C31.2907 93.7324 31.5072 93.6055 31.7578 93.5176C32.0085 93.4297 32.3161 93.3857 32.6807 93.3857C33.3577 93.3857 33.903 93.5615 34.3164 93.9131C34.7331 94.2614 34.9414 94.7301 34.9414 95.3193C34.9414 95.736 34.8177 96.0876 34.5703 96.374C34.4141 96.5531 34.2513 96.6751 34.082 96.7402C34.209 96.7402 34.3913 96.8493 34.6289 97.0674C34.9837 97.3962 35.1611 97.8454 35.1611 98.415C35.1611 99.014 34.9528 99.5413 34.5361 99.9971C34.1227 100.45 33.5091 100.676 32.6953 100.676C31.6927 100.676 30.9961 100.349 30.6055 99.6943C30.4004 99.346 30.2865 98.8903 30.2637 98.3271H31.6309ZM37.2998 97.0283C37.2998 97.8421 37.3665 98.4655 37.5 98.8984C37.6335 99.3281 37.9069 99.543 38.3203 99.543C38.7337 99.543 39.0039 99.3281 39.1309 98.8984C39.2611 98.4655 39.3262 97.8421 39.3262 97.0283C39.3262 96.1755 39.2611 95.5439 39.1309 95.1338C39.0039 94.7236 38.7337 94.5186 38.3203 94.5186C37.9069 94.5186 37.6335 94.7236 37.5 95.1338C37.3665 95.5439 37.2998 96.1755 37.2998 97.0283ZM38.3203 93.3711C39.222 93.3711 39.8535 93.6885 40.2148 94.3232C40.5794 94.958 40.7617 95.8597 40.7617 97.0283C40.7617 98.1969 40.5794 99.097 40.2148 99.7285C39.8535 100.36 39.222 100.676 38.3203 100.676C37.4186 100.676 36.7855 100.36 36.4209 99.7285C36.0596 99.097 35.8789 98.1969 35.8789 97.0283C35.8789 95.8597 36.0596 94.958 36.4209 94.3232C36.7855 93.6885 37.4186 93.3711 38.3203 93.3711ZM42.8662 97.0283C42.8662 97.8421 42.9329 98.4655 43.0664 98.8984C43.1999 99.3281 43.4733 99.543 43.8867 99.543C44.3001 99.543 44.5703 99.3281 44.6973 98.8984C44.8275 98.4655 44.8926 97.8421 44.8926 97.0283C44.8926 96.1755 44.8275 95.5439 44.6973 95.1338C44.5703 94.7236 44.3001 94.5186 43.8867 94.5186C43.4733 94.5186 43.1999 94.7236 43.0664 95.1338C42.9329 95.5439 42.8662 96.1755 42.8662 97.0283ZM43.8867 93.3711C44.7884 93.3711 45.4199 93.6885 45.7812 94.3232C46.1458 94.958 46.3281 95.8597 46.3281 97.0283C46.3281 98.1969 46.1458 99.097 45.7812 99.7285C45.4199 100.36 44.7884 100.676 43.8867 100.676C42.985 100.676 42.3519 100.36 41.9873 99.7285C41.626 99.097 41.4453 98.1969 41.4453 97.0283C41.4453 95.8597 41.626 94.958 41.9873 94.3232C42.3519 93.6885 42.985 93.3711 43.8867 93.3711Z" fill="white"/>
<path d="M35.2295 69.9766H34.4287V71.5H33.0664V69.9766H30.2637V68.7607L32.8662 64.4639H34.4287V68.8877H35.2295V69.9766ZM33.0664 68.8877V65.8311L31.2939 68.8877H33.0664ZM37.2998 68.0283C37.2998 68.8421 37.3665 69.4655 37.5 69.8984C37.6335 70.3281 37.9069 70.543 38.3203 70.543C38.7337 70.543 39.0039 70.3281 39.1309 69.8984C39.2611 69.4655 39.3262 68.8421 39.3262 68.0283C39.3262 67.1755 39.2611 66.5439 39.1309 66.1338C39.0039 65.7236 38.7337 65.5186 38.3203 65.5186C37.9069 65.5186 37.6335 65.7236 37.5 66.1338C37.3665 66.5439 37.2998 67.1755 37.2998 68.0283ZM38.3203 64.3711C39.222 64.3711 39.8535 64.6885 40.2148 65.3232C40.5794 65.958 40.7617 66.8597 40.7617 68.0283C40.7617 69.1969 40.5794 70.097 40.2148 70.7285C39.8535 71.36 39.222 71.6758 38.3203 71.6758C37.4186 71.6758 36.7855 71.36 36.4209 70.7285C36.0596 70.097 35.8789 69.1969 35.8789 68.0283C35.8789 66.8597 36.0596 65.958 36.4209 65.3232C36.7855 64.6885 37.4186 64.3711 38.3203 64.3711ZM42.8662 68.0283C42.8662 68.8421 42.9329 69.4655 43.0664 69.8984C43.1999 70.3281 43.4733 70.543 43.8867 70.543C44.3001 70.543 44.5703 70.3281 44.6973 69.8984C44.8275 69.4655 44.8926 68.8421 44.8926 68.0283C44.8926 67.1755 44.8275 66.5439 44.6973 66.1338C44.5703 65.7236 44.3001 65.5186 43.8867 65.5186C43.4733 65.5186 43.1999 65.7236 43.0664 66.1338C42.9329 66.5439 42.8662 67.1755 42.8662 68.0283ZM43.8867 64.3711C44.7884 64.3711 45.4199 64.6885 45.7812 65.3232C46.1458 65.958 46.3281 66.8597 46.3281 68.0283C46.3281 69.1969 46.1458 70.097 45.7812 70.7285C45.4199 71.36 44.7884 71.6758 43.8867 71.6758C42.985 71.6758 42.3519 71.36 41.9873 70.7285C41.626 70.097 41.4453 69.1969 41.4453 68.0283C41.4453 66.8597 41.626 65.958 41.9873 65.3232C42.3519 64.6885 42.985 64.3711 43.8867 64.3711Z" fill="white"/>
<path d="M31.6504 40.6055C31.7057 40.9082 31.8115 41.1426 31.9678 41.3086C32.124 41.4714 32.3519 41.5527 32.6514 41.5527C32.9964 41.5527 33.2585 41.4323 33.4375 41.1914C33.6198 40.9473 33.7109 40.6413 33.7109 40.2734C33.7109 39.9121 33.6263 39.6077 33.457 39.3604C33.2878 39.1097 33.0241 38.9844 32.666 38.9844C32.4967 38.9844 32.3503 39.0055 32.2266 39.0479C32.0085 39.126 31.8441 39.2708 31.7334 39.4824L30.4834 39.4238L30.9814 35.5127H34.8828V36.6943H31.9873L31.7334 38.2422C31.9482 38.1022 32.1159 38.0094 32.2363 37.9639C32.4382 37.889 32.6839 37.8516 32.9736 37.8516C33.5596 37.8516 34.0706 38.0485 34.5068 38.4424C34.943 38.8363 35.1611 39.4092 35.1611 40.1611C35.1611 40.8154 34.9512 41.3997 34.5312 41.9141C34.1113 42.4284 33.4831 42.6855 32.6465 42.6855C31.9727 42.6855 31.4193 42.5049 30.9863 42.1436C30.5534 41.7822 30.3125 41.2695 30.2637 40.6055H31.6504ZM37.2998 39.0283C37.2998 39.8421 37.3665 40.4655 37.5 40.8984C37.6335 41.3281 37.9069 41.543 38.3203 41.543C38.7337 41.543 39.0039 41.3281 39.1309 40.8984C39.2611 40.4655 39.3262 39.8421 39.3262 39.0283C39.3262 38.1755 39.2611 37.5439 39.1309 37.1338C39.0039 36.7236 38.7337 36.5186 38.3203 36.5186C37.9069 36.5186 37.6335 36.7236 37.5 37.1338C37.3665 37.5439 37.2998 38.1755 37.2998 39.0283ZM38.3203 35.3711C39.222 35.3711 39.8535 35.6885 40.2148 36.3232C40.5794 36.958 40.7617 37.8597 40.7617 39.0283C40.7617 40.1969 40.5794 41.097 40.2148 41.7285C39.8535 42.36 39.222 42.6758 38.3203 42.6758C37.4186 42.6758 36.7855 42.36 36.4209 41.7285C36.0596 41.097 35.8789 40.1969 35.8789 39.0283C35.8789 37.8597 36.0596 36.958 36.4209 36.3232C36.7855 35.6885 37.4186 35.3711 38.3203 35.3711ZM42.8662 39.0283C42.8662 39.8421 42.9329 40.4655 43.0664 40.8984C43.1999 41.3281 43.4733 41.543 43.8867 41.543C44.3001 41.543 44.5703 41.3281 44.6973 40.8984C44.8275 40.4655 44.8926 39.8421 44.8926 39.0283C44.8926 38.1755 44.8275 37.5439 44.6973 37.1338C44.5703 36.7236 44.3001 36.5186 43.8867 36.5186C43.4733 36.5186 43.1999 36.7236 43.0664 37.1338C42.9329 37.5439 42.8662 38.1755 42.8662 39.0283ZM43.8867 35.3711C44.7884 35.3711 45.4199 35.6885 45.7812 36.3232C46.1458 36.958 46.3281 37.8597 46.3281 39.0283C46.3281 40.1969 46.1458 41.097 45.7812 41.7285C45.4199 42.36 44.7884 42.6758 43.8867 42.6758C42.985 42.6758 42.3519 42.36 41.9873 41.7285C41.626 41.097 41.4453 40.1969 41.4453 39.0283C41.4453 37.8597 41.626 36.958 41.9873 36.3232C42.3519 35.6885 42.985 35.3711 43.8867 35.3711Z" fill="white"/>
<defs>
<linearGradient id="paint0_linear_10_107" x1="16" y1="222" x2="488.25" y2="27.75" gradientUnits="userSpaceOnUse">
<stop stop-color="#313860"/>
<stop offset="1" stop-color="#151928"/>
</linearGradient>
</defs>
</svg>
