<svg width="10" height="10" viewBox="0 0 10 10" fill="none" xmlns="http://www.w3.org/2000/svg">
<path d="M6.82285 1.35404C7.30591 1.35548 7.76877 1.54802 8.11034 1.88959C8.45192 2.23117 8.64445 2.69403 8.64589 3.17709V6.82279C8.64445 7.30585 8.45192 7.76871 8.11034 8.11028C7.76877 8.45186 7.30591 8.64439 6.82285 8.64583H3.17715C2.69409 8.64439 2.23123 8.45186 1.88965 8.11028C1.54808 7.76871 1.35554 7.30585 1.3541 6.82279V3.17709C1.35554 2.69403 1.54808 2.23117 1.88965 1.88959C2.23123 1.54802 2.69409 1.35548 3.17715 1.35404H6.82285V1.35404ZM6.82285 0.624939H3.17715C1.77344 0.624939 0.625 1.77338 0.625 3.17709V6.82279C0.625 8.2265 1.77344 9.37493 3.17715 9.37493H6.82285C8.22656 9.37493 9.375 8.2265 9.375 6.82279V3.17709C9.375 1.77338 8.22656 0.624939 6.82285 0.624939V0.624939Z" fill="#4FD1C5"/>
<path d="M7.36963 3.177C7.26147 3.177 7.15574 3.14493 7.0658 3.08484C6.97587 3.02475 6.90577 2.93934 6.86438 2.83941C6.82299 2.73948 6.81216 2.62952 6.83326 2.52344C6.85436 2.41735 6.90645 2.31991 6.98293 2.24343C7.05941 2.16695 7.15686 2.11486 7.26294 2.09376C7.36902 2.07266 7.47898 2.08349 7.57891 2.12488C7.67884 2.16627 7.76425 2.23637 7.82434 2.3263C7.88443 2.41623 7.9165 2.52197 7.9165 2.63013C7.91666 2.70199 7.90262 2.77317 7.87519 2.83959C7.84776 2.90601 7.80749 2.96636 7.75667 3.01717C7.70586 3.06798 7.64551 3.10826 7.57909 3.13569C7.51267 3.16312 7.44149 3.17716 7.36963 3.177V3.177Z" fill="#4FD1C5"/>
<path d="M5 3.5413C5.28844 3.5413 5.57041 3.62683 5.81024 3.78708C6.05008 3.94733 6.237 4.1751 6.34738 4.44159C6.45777 4.70808 6.48665 5.00131 6.43038 5.28421C6.3741 5.56711 6.2352 5.82698 6.03124 6.03094C5.82728 6.2349 5.56742 6.3738 5.28452 6.43007C5.00162 6.48634 4.70838 6.45746 4.4419 6.34708C4.17541 6.2367 3.94764 6.04977 3.78739 5.80994C3.62714 5.5701 3.5416 5.28814 3.5416 4.99969C3.54202 4.61303 3.6958 4.24232 3.96921 3.96891C4.24263 3.69549 4.61334 3.54171 5 3.5413V3.5413ZM5 2.81219C4.56735 2.81219 4.14442 2.94049 3.78469 3.18085C3.42496 3.42122 3.14458 3.76286 2.97901 4.16257C2.81345 4.56229 2.77013 5.00212 2.85453 5.42645C2.93894 5.85079 3.14728 6.24056 3.4532 6.54649C3.75913 6.85242 4.14891 7.06076 4.57324 7.14516C4.99757 7.22957 5.43741 7.18625 5.83712 7.02068C6.23683 6.85511 6.57847 6.57474 6.81884 6.215C7.05921 5.85527 7.1875 5.43234 7.1875 4.99969C7.1875 4.41953 6.95703 3.86313 6.5468 3.4529C6.13656 3.04266 5.58016 2.81219 5 2.81219V2.81219Z" fill="#4FD1C5"/>
</svg>
