<svg width="20" height="20" viewBox="0 0 20 20" fill="none" xmlns="http://www.w3.org/2000/svg">
<g clip-path="url(#clip0_10_1048)">
<path d="M18.187 0H1.81305C0.811719 0 0 0.811719 0 1.81305V18.187C0 19.1883 0.811719 20 1.81305 20H18.187C19.1883 20 20 19.1883 20 18.187V1.81305C20 0.811719 19.1883 0 18.187 0Z" fill="#DC395F"/>
<path d="M6.68391 6.29339C7.34876 6.29339 7.90571 5.77229 7.90571 5.08932C7.90571 4.40682 7.34876 3.8858 6.68391 3.8858C6.01907 3.8858 5.46227 4.40682 5.46227 5.08932C5.46227 5.77221 6.01907 6.29339 6.68391 6.29339ZM4.15063 12.7403C4.07883 13.0457 4.04282 13.3756 4.04282 13.6446C4.04282 14.7049 4.61774 15.4087 5.83954 15.4087C6.85282 15.4087 7.6743 14.807 8.26579 13.8354L7.90461 15.2848H9.91672L11.0667 10.6724C11.3542 9.50456 11.9112 8.89839 12.7557 8.89839C13.4205 8.89839 13.8337 9.31183 13.8337 9.99433C13.8337 10.1921 13.8157 10.4075 13.7438 10.6411L13.1509 12.7612C13.061 13.0667 13.0252 13.3723 13.0252 13.6596C13.0252 14.6661 13.618 15.4022 14.8577 15.4022C15.9178 15.4022 16.7622 14.7198 17.2294 13.0847L16.4389 12.7796C16.0436 13.875 15.7022 14.073 15.4327 14.073C15.1631 14.073 15.0194 13.8935 15.0194 13.5343C15.0194 13.3726 15.0555 13.1932 15.1092 12.9771L15.6843 10.9116C15.828 10.4266 15.882 9.99652 15.882 9.60136C15.882 8.0562 14.9476 7.24979 13.8157 7.24979C12.7557 7.24979 11.6776 8.20597 11.1387 9.2123L11.5338 7.40604H8.46165L8.0304 8.99698H9.46782L8.58266 12.5407C7.88758 14.0859 6.61079 14.111 6.45055 14.0751C6.18743 14.0157 6.01915 13.9158 6.01915 13.5739C6.01915 13.3767 6.05508 13.0933 6.14493 12.7517L7.49258 7.40604H4.07883L3.64758 8.99698H5.06688L4.15071 12.7403" fill="white"/>
</g>
<defs>
<clipPath id="clip0_10_1048">
<rect width="20" height="20" fill="white"/>
</clipPath>
</defs>
</svg>
