<svg width="11" height="11" viewBox="0 0 11 11" fill="none" xmlns="http://www.w3.org/2000/svg">
<g clip-path="url(#clip0_92_42)">
<path d="M7.14658 1.38728C6.7285 0.935891 6.14455 0.687317 5.50002 0.687317C4.85205 0.687317 4.26617 0.934387 3.85002 1.38298C3.42936 1.83652 3.2244 2.4529 3.27252 3.11849C3.36791 4.43161 4.36715 5.49982 5.50002 5.49982C6.63289 5.49982 7.63041 4.43183 7.72731 3.11892C7.77607 2.45935 7.56982 1.84425 7.14658 1.38728Z" fill="#2D3748"/>
<path d="M9.28137 10.3118H1.71887C1.61989 10.3131 1.52186 10.2923 1.43192 10.251C1.34198 10.2096 1.26239 10.1487 1.19895 10.0727C1.0593 9.90577 1.00301 9.67782 1.04469 9.4473C1.22602 8.4414 1.79192 7.59642 2.68137 7.00323C3.47157 6.47665 4.47252 6.18683 5.50012 6.18683C6.52772 6.18683 7.52867 6.47687 8.31887 7.00323C9.20832 7.5962 9.77422 8.44118 9.95555 9.44708C9.99723 9.67761 9.94094 9.90556 9.80129 10.0725C9.73787 10.1485 9.65829 10.2095 9.56835 10.2509C9.47841 10.2923 9.38037 10.3131 9.28137 10.3118Z" fill="#2D3748"/>
</g>
<defs>
<clipPath id="clip0_92_42">
<rect width="11" height="11" fill="white"/>
</clipPath>
</defs>
</svg>
