<svg width="11" height="11" viewBox="0 0 11 11" fill="none" xmlns="http://www.w3.org/2000/svg">
<g clip-path="url(#clip0_67_364)">
<path d="M10.0885 2.58973C10.0637 2.54159 10.0279 2.49998 9.98405 2.46828C9.94017 2.43658 9.88942 2.41569 9.83594 2.40731C9.78246 2.39894 9.72776 2.40331 9.67628 2.42008C9.62481 2.43684 9.57803 2.46553 9.53974 2.50379L8.21974 3.82465C8.15495 3.88851 8.06762 3.92431 7.97665 3.92431C7.88567 3.92431 7.79835 3.88851 7.73355 3.82465L7.16293 3.25317C7.131 3.22125 7.10567 3.18335 7.08839 3.14164C7.07111 3.09993 7.06222 3.05522 7.06222 3.01007C7.06222 2.96492 7.07111 2.92022 7.08839 2.87851C7.10567 2.8368 7.131 2.7989 7.16293 2.76698L8.47734 1.45235C8.51674 1.41295 8.54598 1.36456 8.56253 1.31136C8.57908 1.25815 8.58245 1.20172 8.57234 1.14692C8.56223 1.09213 8.53896 1.04061 8.50452 0.996804C8.47008 0.953 8.42551 0.918225 8.37465 0.895474V0.895474C7.38185 0.451607 6.14264 0.683208 5.36125 1.45879C4.69738 2.11793 4.49951 3.14789 4.81877 4.28463C4.83598 4.34525 4.83608 4.40945 4.81906 4.47012C4.80203 4.53079 4.76854 4.58557 4.7223 4.62838L1.14559 7.89508C1.00625 8.02019 0.893858 8.17237 0.81527 8.34234C0.736682 8.51231 0.693545 8.69651 0.688491 8.88371C0.683436 9.0709 0.71657 9.25716 0.785871 9.43113C0.855172 9.60509 0.959187 9.76311 1.09157 9.89556C1.22396 10.028 1.38193 10.1321 1.55587 10.2015C1.7298 10.2708 1.91605 10.3041 2.10324 10.2991C2.29044 10.2941 2.47466 10.2511 2.64467 10.1725C2.81467 10.094 2.9669 9.98171 3.09207 9.84242L6.39379 6.25776C6.43598 6.21211 6.48984 6.17885 6.54954 6.16155C6.60924 6.14425 6.67253 6.14356 6.7326 6.15957C7.05623 6.24825 7.39005 6.29426 7.7256 6.29643C8.44318 6.29643 9.07289 6.06418 9.52707 5.61666C10.3682 4.78801 10.4964 3.3825 10.0885 2.58973ZM2.13795 9.60717C1.99645 9.62261 1.85365 9.59376 1.72925 9.52459C1.60485 9.45542 1.50499 9.34935 1.44344 9.221C1.3819 9.09266 1.3617 8.94838 1.38565 8.80807C1.4096 8.66776 1.4765 8.53834 1.57713 8.43768C1.67776 8.33701 1.80715 8.27006 1.94745 8.24607C2.08775 8.22207 2.23204 8.24222 2.3604 8.30372C2.48877 8.36522 2.59488 8.46504 2.66409 8.58942C2.73331 8.71379 2.76221 8.85659 2.74682 8.99809C2.72988 9.15378 2.66029 9.29902 2.54957 9.40978C2.43885 9.52054 2.29364 9.59018 2.13795 9.60717V9.60717Z" fill="#2D3748"/>
</g>
<defs>
<clipPath id="clip0_67_364">
<rect width="11" height="11" fill="white"/>
</clipPath>
</defs>
</svg>
