<svg width="11" height="11" viewBox="0 0 11 11" fill="none" xmlns="http://www.w3.org/2000/svg">
<path d="M5.5 1.03076C3.03596 1.03076 1.03125 3.03547 1.03125 5.49951C1.03125 7.96355 3.03596 9.96826 5.5 9.96826C7.96404 9.96826 9.96875 7.96355 9.96875 5.49951C9.96875 3.03547 7.96404 1.03076 5.5 1.03076ZM4.42105 3.54057C4.69326 3.25203 5.07633 3.09326 5.5 3.09326C5.92367 3.09326 6.3033 3.25311 6.57658 3.54314C6.85351 3.83705 6.98822 4.23193 6.95643 4.65646C6.89283 5.49951 6.23971 6.18701 5.5 6.18701C4.76029 6.18701 4.10588 5.49951 4.04357 4.65625C4.01199 4.22828 4.14648 3.83211 4.42105 3.54057ZM5.5 9.28076C4.99522 9.28109 4.49551 9.18006 4.0305 8.98365C3.5655 8.78724 3.14467 8.49946 2.79297 8.13736C2.9944 7.85011 3.25105 7.60587 3.54793 7.41893C4.09557 7.06787 4.78865 6.87451 5.5 6.87451C6.21135 6.87451 6.90443 7.06787 7.45142 7.41893C7.74855 7.60579 8.00543 7.85003 8.20703 8.13736C7.85536 8.4995 7.43454 8.78731 6.96953 8.98372C6.50451 9.18013 6.00479 9.28114 5.5 9.28076V9.28076Z" fill="#2D3748"/>
</svg>
