<svg width="11" height="11" viewBox="0 0 11 11" fill="none" xmlns="http://www.w3.org/2000/svg">
<path d="M4.68623 3.59191C4.68623 3.87121 4.68623 4.14191 4.77432 4.39542C3.84834 5.48253 1.40342 8.35499 1.17568 8.57413C1.13042 8.61474 1.09421 8.66443 1.06941 8.71995C1.04461 8.77547 1.03178 8.83559 1.03174 8.8964C1.03174 9.07902 1.14346 9.25519 1.23799 9.35402C1.37979 9.50226 1.98564 10.063 2.09736 9.95558C2.42822 9.63331 2.49482 9.54738 2.63018 9.41417C2.83428 9.21437 2.60869 8.80617 2.67959 8.64074C2.75049 8.47531 2.82568 8.44308 2.94814 8.4173C3.07061 8.39152 3.2876 8.4796 3.45732 8.48175C3.63564 8.4839 3.73232 8.4087 3.86553 8.2841C3.97295 8.18527 4.05029 8.09288 4.05244 7.94894C4.05674 7.75558 3.77744 7.49992 3.98584 7.29581C4.19424 7.09171 4.49502 7.42902 4.71631 7.40324C4.9376 7.37746 5.20615 7.07023 5.23408 6.93917C5.26201 6.80812 4.98271 6.47081 5.02568 6.2796C5.04072 6.21515 5.17178 6.06476 5.27061 6.04328C5.36943 6.02179 5.80771 6.19152 5.90654 6.17003C6.02685 6.14425 6.1665 6.01749 6.28037 5.9466C6.61338 6.09054 6.91631 6.14855 7.30518 6.14855C8.77685 6.14855 9.96924 5.00128 9.96924 3.58761C9.96924 2.17394 8.77685 1.03162 7.30518 1.03162C5.8335 1.03162 4.68623 2.17824 4.68623 3.59191ZM8.59424 3.09412C8.59424 3.23009 8.55392 3.36301 8.47837 3.47607C8.40283 3.58913 8.29546 3.67725 8.16983 3.72928C8.04421 3.78132 7.90597 3.79493 7.77261 3.76841C7.63925 3.74188 7.51675 3.6764 7.4206 3.58025C7.32445 3.4841 7.25898 3.3616 7.23245 3.22824C7.20592 3.09488 7.21954 2.95665 7.27157 2.83102C7.32361 2.7054 7.41172 2.59802 7.52478 2.52248C7.63784 2.44694 7.77076 2.40662 7.90674 2.40662C8.08907 2.40662 8.26394 2.47905 8.39287 2.60798C8.5218 2.73691 8.59424 2.91178 8.59424 3.09412Z" fill="#2D3748"/>
</svg>
