<svg width="20" height="21" viewBox="0 0 20 21" fill="none" xmlns="http://www.w3.org/2000/svg">
<g clip-path="url(#clip0_10_1030)">
<path fill-rule="evenodd" clip-rule="evenodd" d="M7.33266 0C6.22708 0.000835882 5.33233 0.918634 5.33315 2.04958C5.33233 3.18053 6.2279 4.09833 7.33347 4.09916H9.3338V2.05042C9.33462 0.91947 8.43905 0.00167176 7.33266 0C7.33347 0 7.33347 0 7.33266 0V0ZM7.33266 5.46667H2.00009C0.894512 5.4675 -0.00105903 6.3853 -0.000241908 7.51625C-0.00187616 8.6472 0.893695 9.56499 1.99927 9.56667H7.33266C8.43823 9.56583 9.3338 8.64803 9.33298 7.51708C9.3338 6.3853 8.43823 5.4675 7.33266 5.46667Z" fill="#36C5F0"/>
<path fill-rule="evenodd" clip-rule="evenodd" d="M20 7.51704C20.0008 6.38609 19.1052 5.4683 17.9997 5.46746C16.8941 5.4683 15.9985 6.38609 15.9993 7.51704V9.56746H17.9997C19.1052 9.56662 20.0008 8.64883 20 7.51704ZM14.6666 7.51704V2.05038C14.6674 0.920263 13.7727 0.00246522 12.6671 0.000793457C11.5615 0.00162934 10.6659 0.919427 10.6668 2.05038V7.51704C10.6651 8.64799 11.5607 9.56579 12.6663 9.56746C13.7718 9.56662 14.6674 8.64883 14.6666 7.51704Z" fill="#2EB67D"/>
<path fill-rule="evenodd" clip-rule="evenodd" d="M12.6663 20.5008C13.7719 20.5 14.6675 19.5822 14.6667 18.4512C14.6675 17.3203 13.7719 16.4025 12.6663 16.4016H10.666V18.4512C10.6652 19.5813 11.5608 20.4991 12.6663 20.5008ZM12.6663 15.0333H17.9997C19.1053 15.0325 20.0009 14.1147 20.0001 12.9837C20.0017 11.8528 19.1061 10.935 18.0005 10.9333H12.6672C11.5616 10.9341 10.666 11.8519 10.6668 12.9829C10.666 14.1147 11.5608 15.0325 12.6663 15.0333Z" fill="#ECB22E"/>
<path fill-rule="evenodd" clip-rule="evenodd" d="M5.58721e-07 12.9837C-0.000816568 14.1146 0.894755 15.0324 2.00033 15.0333C3.1059 15.0324 4.00147 14.1146 4.00065 12.9837V10.9341H2.00033C0.894755 10.9349 -0.000816568 11.8527 5.58721e-07 12.9837ZM5.33339 12.9837V18.4504C5.33175 19.5813 6.22733 20.4991 7.3329 20.5008C8.43847 20.5 9.33404 19.5822 9.33323 18.4512V12.9854C9.33486 11.8544 8.43929 10.9366 7.33371 10.9349C6.22732 10.9349 5.33257 11.8527 5.33339 12.9837C5.33339 12.9845 5.33339 12.9837 5.33339 12.9837Z" fill="#E01E5A"/>
</g>
<defs>
<clipPath id="clip0_10_1030">
<rect width="20" height="20.5" fill="white"/>
</clipPath>
</defs>
</svg>
