<svg width="11" height="11" viewBox="0 0 11 11" fill="none" xmlns="http://www.w3.org/2000/svg">
<g clip-path="url(#clip0_67_344)">
<path d="M6.41072 5.32801C6.42765 5.32802 6.44421 5.32304 6.45832 5.31367C6.47242 5.30431 6.48345 5.29099 6.49001 5.27539C6.49658 5.25978 6.49838 5.24258 6.49521 5.22596C6.49203 5.20933 6.48402 5.194 6.47217 5.18191L4.78779 3.46918C4.77582 3.45703 4.76051 3.44871 4.74379 3.44529C4.72708 3.44187 4.70973 3.4435 4.69395 3.44997C4.67816 3.45645 4.66467 3.46747 4.65517 3.48164C4.64567 3.49582 4.64061 3.51249 4.64063 3.52955V5.0702C4.64063 5.13857 4.66779 5.20415 4.71614 5.2525C4.76449 5.30085 4.83006 5.32801 4.89844 5.32801H6.41072Z" fill="#2D3748"/>
<path d="M4.23242 5.73633C4.14418 5.64927 4.07406 5.54559 4.02612 5.43127C3.97818 5.31695 3.95337 5.19427 3.95312 5.07031V3.09375H2.40625C2.04191 3.09483 1.6928 3.24004 1.43517 3.49767C1.17754 3.7553 1.03233 4.10441 1.03125 4.46875V9.28125C1.03125 9.64592 1.17612 9.99566 1.43398 10.2535C1.69184 10.5114 2.04158 10.6562 2.40625 10.6562H5.5C5.86467 10.6562 6.21441 10.5114 6.47227 10.2535C6.73013 9.99566 6.875 9.64592 6.875 9.28125V6.01562H4.89844C4.77447 6.01545 4.65176 5.99067 4.53744 5.94273C4.42311 5.89478 4.31944 5.82463 4.23242 5.73633Z" fill="#2D3748"/>
<path d="M7.99219 2.57776H9.50447C9.5214 2.57778 9.53796 2.57279 9.55207 2.56343C9.56617 2.55407 9.5772 2.54075 9.58376 2.52514C9.59033 2.50954 9.59213 2.49234 9.58896 2.47571C9.58578 2.45908 9.57777 2.44376 9.56592 2.43167L7.88154 0.718936C7.86957 0.706781 7.85426 0.698464 7.83754 0.695044C7.82083 0.691623 7.80348 0.693254 7.7877 0.699728C7.77191 0.706202 7.75842 0.717227 7.74892 0.731399C7.73942 0.745571 7.73436 0.762248 7.73438 0.779307V2.31995C7.73438 2.38833 7.76154 2.4539 7.80989 2.50225C7.85824 2.5506 7.92381 2.57776 7.99219 2.57776Z" fill="#2D3748"/>
<path d="M7.99219 3.26544C7.74206 3.26353 7.50273 3.16332 7.32586 2.98645C7.14899 2.80959 7.04878 2.57025 7.04687 2.32013V0.343567H4.72656C4.3848 0.343965 4.05716 0.479904 3.8155 0.721564C3.57384 0.963224 3.4379 1.29087 3.4375 1.63263V2.40607H4.34242C4.45793 2.40653 4.5722 2.42981 4.67868 2.47457C4.78516 2.51933 4.88175 2.58469 4.96289 2.66689L7.30812 5.05165C7.47174 5.21766 7.56309 5.44162 7.56228 5.6747V8.59356H8.70203C9.40049 8.59356 9.96853 8.0152 9.96853 7.3045V3.26544H7.99219Z" fill="black"/>
</g>
<defs>
<clipPath id="clip0_67_344">
<rect width="11" height="11" fill="white"/>
</clipPath>
</defs>
</svg>
