<svg width="20" height="20" viewBox="0 0 20 20" fill="none" xmlns="http://www.w3.org/2000/svg">
<g clip-path="url(#clip0_10_493)">
<path d="M3.54167 0H16.4583C18.4167 0 20 1.58333 20 3.54167V15.9583C20 17.9167 18.4167 19.5 16.4583 19.5H3.54167C1.58333 19.5 0 17.9167 0 15.9583V3.54167C0 1.58333 1.58333 0 3.54167 0Z" fill="#470137"/>
<path d="M10.5167 5.125L8.01672 9.25L10.6834 13.625C10.7001 13.6583 10.7084 13.6917 10.7001 13.725C10.6917 13.7583 10.6584 13.7333 10.6084 13.7417H8.70006C8.56672 13.7417 8.47505 13.7333 8.41672 13.65C8.24172 13.3 8.05839 12.9583 7.88339 12.6083C7.70839 12.2667 7.51672 11.9167 7.31672 11.5583C7.11672 11.2 6.91672 10.8417 6.71672 10.475H6.70005C6.52505 10.8333 6.33339 11.1917 6.14172 11.55C5.95005 11.9083 5.75839 12.2667 5.57505 12.6167C5.38339 12.9667 5.19172 13.325 5.00005 13.6667C4.96672 13.75 4.90005 13.7583 4.80839 13.7583H2.97505C2.94172 13.7583 2.91672 13.775 2.91672 13.7333C2.90839 13.7 2.91672 13.6667 2.93339 13.6417L5.52505 9.39167L3.00005 5.11667C2.97505 5.08333 2.96672 5.05 2.98339 5.03333C3.00005 5.00833 3.03339 5 3.06672 5H4.95839C5.00005 5 5.04172 5.00833 5.07505 5.01667C5.10839 5.03333 5.13339 5.05833 5.15839 5.09167C5.31672 5.45 5.50006 5.80833 5.69172 6.16667C5.89172 6.525 6.08339 6.875 6.29172 7.225C6.49172 7.575 6.67505 7.925 6.85005 8.28333H6.86672C7.04172 7.91667 7.22505 7.55833 7.40839 7.20833C7.59172 6.85833 7.78339 6.50833 7.97505 6.15833C8.16672 5.80833 8.35005 5.45 8.53339 5.10833C8.54172 5.075 8.55839 5.04167 8.58339 5.025C8.61672 5.00833 8.65005 5 8.69172 5.00833H10.4501C10.4917 5 10.5334 5.025 10.5417 5.06667C10.5501 5.075 10.5334 5.10833 10.5167 5.125Z" fill="#FF61F6"/>
<path d="M14.3667 13.9167C13.75 13.925 13.1333 13.8 12.575 13.5417C12.05 13.3 11.6167 12.9 11.3167 12.4083C11.0083 11.9 10.8583 11.2667 10.8583 10.5083C10.85 9.89167 11.0083 9.28334 11.3167 8.75001C11.6333 8.20834 12.0917 7.75834 12.6417 7.45834C13.225 7.13334 13.925 6.97501 14.75 6.97501C14.7917 6.97501 14.85 6.97501 14.925 6.98334C15 6.99167 15.0833 6.99167 15.1833 7.00001V4.36667C15.1833 4.30834 15.2083 4.27501 15.2667 4.27501H16.9583C17 4.26667 17.0333 4.30001 17.0417 4.33334C17.0417 4.34167 17.0417 4.35001 17.0417 4.35001V12.2833C17.0417 12.4333 17.05 12.6 17.0583 12.7833C17.075 12.9583 17.0833 13.125 17.0917 13.2667C17.0917 13.325 17.0667 13.375 17.0083 13.4C16.575 13.5833 16.1167 13.7167 15.65 13.8C15.225 13.875 14.8 13.9167 14.3667 13.9167ZM15.1833 12.25V8.58334C15.1083 8.56667 15.0333 8.55001 14.9583 8.54167C14.8667 8.53334 14.775 8.52501 14.6833 8.52501C14.3583 8.52501 14.0333 8.59167 13.7417 8.74167C13.4583 8.88334 13.2167 9.09167 13.0333 9.35834C12.85 9.62501 12.7583 9.98334 12.7583 10.4167C12.75 10.7083 12.8 11 12.9 11.275C12.9833 11.5 13.1083 11.7 13.275 11.8667C13.4333 12.0167 13.625 12.1333 13.8417 12.2C14.0667 12.275 14.3 12.3083 14.5333 12.3083C14.6583 12.3083 14.775 12.3 14.8833 12.2917C14.9917 12.3 15.0833 12.2833 15.1833 12.25Z" fill="#FF61F6"/>
</g>
<defs>
<clipPath id="clip0_10_493">
<rect width="20" height="19.5" fill="white"/>
</clipPath>
</defs>
</svg>
